REM MD5 0d04408bc2f21ea0437fed5b52f182e5
FILE "Shadow Madness (Germany) (Disc 2).bin" BINARY
  TRACK 01 MODE2/2352
    INDEX 01 00:00:00
  TRACK 02 AUDIO
    INDEX 00 57:29:46
    INDEX 01 57:31:46
  TRACK 03 AUDIO
    INDEX 00 61:36:32
    INDEX 01 61:38:32
  TRACK 04 AUDIO
    INDEX 00 64:46:09
    INDEX 01 64:48:09
REM LEADOUT 70:01:09
